<svg xmlns="http://www.w3.org/2000/svg" xmlns:xlink="http://www.w3.org/1999/xlink" width="3477" zoomAndPan="magnify" viewBox="0 0 2607.75 2607.749923" height="3477" preserveAspectRatio="xMidYMid meet" version="1.0"><defs><g/><clipPath id="12b963764a"><path d="M 1249 417 L 1780 417 L 1780 1138 L 1249 1138 Z M 1249 417 " clip-rule="nonzero"/></clipPath><clipPath id="d33b8cb098"><path d="M 1248.949219 416.757812 L 1889.972656 665.664062 L 1698.070312 1159.886719 L 1057.046875 910.984375 Z M 1248.949219 416.757812 " clip-rule="nonzero"/></clipPath><clipPath id="ef824cd63e"><path d="M 1248.949219 416.757812 L 1889.972656 665.664062 L 1698.070312 1159.886719 L 1057.046875 910.984375 Z M 1248.949219 416.757812 " clip-rule="nonzero"/></clipPath><clipPath id="86a3cf5e18"><path d="M 920 698 L 1619 698 L 1619 1334 L 920 1334 Z M 920 698 " clip-rule="nonzero"/></clipPath><clipPath id="73cab6ba00"><path d="M 1530.773438 1336.328125 L 917.316406 852.347656 L 1163.488281 540.320312 L 1776.945312 1024.300781 Z M 1530.773438 1336.328125 " clip-rule="nonzero"/></clipPath><clipPath id="9de4956dfc"><path d="M 1530.773438 1336.328125 L 917.316406 852.347656 L 1163.488281 540.320312 L 1776.945312 1024.300781 Z M 1530.773438 1336.328125 " clip-rule="nonzero"/></clipPath><clipPath id="4f6903ad2f"><path d="M 1315 1218 L 1756.402344 1218 L 1756.402344 1392 L 1315 1392 Z M 1315 1218 " clip-rule="nonzero"/></clipPath><clipPath id="34cb57c6d5"><path d="M 719.300781 1218 L 1162 1218 L 1162 1393.753906 L 719.300781 1393.753906 Z M 719.300781 1218 " clip-rule="nonzero"/></clipPath><clipPath id="cfb6d6280e"><path d="M 870 621.363281 L 1605 621.363281 L 1605 1177 L 870 1177 Z M 870 621.363281 " clip-rule="nonzero"/></clipPath><clipPath id="429436ad10"><path d="M 315.429688 1163.941406 L 2415.070312 1163.941406 L 2415.070312 1442.492188 L 315.429688 1442.492188 Z M 315.429688 1163.941406 " clip-rule="nonzero"/></clipPath><clipPath id="8acf170b9d"><path d="M 283.925781 1259.398438 L 2350.265625 1259.398438 L 2350.265625 1529.347656 L 283.925781 1529.347656 Z M 283.925781 1259.398438 " clip-rule="nonzero"/></clipPath><clipPath id="109c32d59f"><path d="M 1078.453125 1284.125 L 2325.394531 1284.125 L 2325.394531 1504.019531 L 1078.453125 1504.019531 Z M 1078.453125 1284.125 " clip-rule="nonzero"/></clipPath></defs><g clip-path="url(#12b963764a)"><g clip-path="url(#d33b8cb098)"><g clip-path="url(#ef824cd63e)"><path fill="#ff0000" d="M 1314.851562 719.574219 C 1330.578125 698.101562 1442 769.296875 1473.644531 793.558594 C 1501.707031 815.070312 1586.632812 891.089844 1568.523438 915.816406 C 1556.09375 932.789062 1448.179688 866.164062 1411.675781 837.847656 C 1378.667969 812.246094 1294.128906 747.867188 1314.851562 719.574219 Z M 1330.390625 632.847656 C 1360.863281 622.847656 1401.546875 569.792969 1495.921875 626.4375 C 1545.695312 656.3125 1593.167969 707.445312 1615.46875 747.5625 C 1558.105469 701.769531 1474.8125 582.402344 1357.285156 640.664062 C 1338.953125 649.75 1298.589844 679.734375 1288.070312 704.945312 C 1263.300781 764.292969 1510.542969 958.90625 1591.386719 937.929688 L 1622.21875 868.613281 C 1647.394531 872.941406 1687.164062 900.640625 1713.019531 913.023438 C 1696.714844 988.769531 1613.410156 1099.605469 1620.8125 1117.390625 C 1634.703125 1135.332031 1649.507812 1134.851562 1670.234375 1137.316406 C 1697.261719 1046.628906 1683.746094 1033.433594 1729.40625 923.636719 L 1779.695312 948.316406 C 1777.59375 924.398438 1767.386719 914.746094 1759.34375 891.902344 C 1743.675781 847.414062 1766.78125 852.707031 1761.207031 826.621094 C 1752.125 827.300781 1756.011719 825.140625 1742.269531 840.140625 C 1741.773438 840.683594 1741.050781 842.0625 1740.167969 842.742188 C 1735.09375 830.914062 1732.820312 821.640625 1728.289062 808.582031 L 1686.875 706.511719 C 1644.386719 605.457031 1680.292969 637.527344 1587.996094 590.347656 C 1529.996094 560.699219 1286.242188 431.242188 1249.171875 417.3125 C 1262.386719 452.160156 1272.789062 486.0625 1289.019531 523.90625 Z M 1330.390625 632.847656 " fill-opacity="1" fill-rule="evenodd"/></g></g></g><g clip-path="url(#86a3cf5e18)"><g clip-path="url(#73cab6ba00)"><g clip-path="url(#9de4956dfc)"><path fill="#ffffff" d="M 1526.179688 1332.257812 C 1523.523438 1330.160156 1523.070312 1326.308594 1525.164062 1323.652344 C 1654.609375 1159.578125 1626.539062 921.636719 1462.464844 792.195312 C 1298.390625 662.75 1060.449219 690.820312 931.007812 854.894531 C 928.910156 857.550781 925.058594 858.003906 922.398438 855.910156 C 919.742188 853.8125 919.289062 849.960938 921.386719 847.300781 C 1055.019531 677.917969 1300.667969 648.933594 1470.054688 782.570312 C 1639.441406 916.207031 1668.421875 1161.855469 1534.789062 1331.242188 C 1532.691406 1333.898438 1528.835938 1334.355469 1526.179688 1332.257812 Z M 1526.179688 1332.257812 " fill-opacity="1" fill-rule="evenodd"/></g></g></g><path fill="#ff0000" d="M 915.140625 1039.53125 C 915.140625 1039.53125 952.015625 939.113281 990.59375 934.574219 C 1029.171875 930.039062 1067.820312 956.691406 1096.683594 1007.195312 C 1096.683594 1007.195312 1022.933594 928.152344 990.027344 946.875 C 957.121094 965.597656 915.140625 1039.53125 915.140625 1039.53125 " fill-opacity="1" fill-rule="nonzero"/><path fill="#ff0000" d="M 1227.183594 1067.917969 L 1112.570312 1176.824219 L 1237.949219 1230.152344 L 1363.328125 1176.824219 L 1248.714844 1067.917969 C 1242.683594 1062.195312 1233.214844 1062.195312 1227.183594 1067.917969 " fill-opacity="1" fill-rule="nonzero"/><g clip-path="url(#4f6903ad2f)"><path fill="#ff0000" d="M 1315.070312 1260.140625 C 1510.140625 1270.628906 1674.347656 1321.246094 1756.566406 1391.070312 C 1721.789062 1306.503906 1566.394531 1238.707031 1365.300781 1218.320312 L 1315.070312 1260.140625 " fill-opacity="1" fill-rule="nonzero"/></g><g clip-path="url(#34cb57c6d5)"><path fill="#ff0000" d="M 1110.71875 1218.421875 C 907.773438 1239.1875 751.585938 1308.253906 719.332031 1394.050781 C 799.90625 1323.070312 964.625 1271.339844 1161.050781 1260.324219 L 1110.71875 1218.421875 " fill-opacity="1" fill-rule="nonzero"/></g><path fill="#ff0000" d="M 1237.949219 1244.902344 L 1112.570312 1205.191406 L 1237.949219 1309.578125 L 1363.328125 1205.191406 L 1237.949219 1244.902344 " fill-opacity="1" fill-rule="nonzero"/><path fill="#ff0606" d="M 1237.949219 1230.152344 L 1335.628906 1188.613281 L 1237.949219 1230.152344 " fill-opacity="1" fill-rule="nonzero"/><path fill="#ff0000" d="M 1237.949219 1230.152344 L 1140.265625 1188.613281 L 1237.949219 1156.402344 L 1335.628906 1188.613281 L 1237.949219 1230.152344 " fill-opacity="1" fill-rule="nonzero"/><path fill="#ff0000" d="M 1560.757812 1039.53125 C 1560.757812 1039.53125 1523.882812 939.113281 1485.304688 934.574219 C 1446.726562 930.039062 1408.082031 956.691406 1379.214844 1007.195312 C 1379.214844 1007.195312 1452.964844 928.152344 1485.871094 946.875 C 1518.773438 965.597656 1560.757812 1039.53125 1560.757812 1039.53125 " fill-opacity="1" fill-rule="nonzero"/><path fill="#ff0000" d="M 1043.738281 1033.574219 C 1043.738281 1044.445312 1034.929688 1053.25 1024.066406 1053.25 C 1013.207031 1053.25 1004.402344 1044.445312 1004.402344 1033.574219 C 1004.402344 1022.714844 1013.207031 1013.914062 1024.066406 1013.914062 C 1034.929688 1013.914062 1043.738281 1022.714844 1043.738281 1033.574219 Z M 1011.964844 1000.953125 C 990.667969 1000.953125 973.40625 1026.359375 973.40625 1057.6875 C 973.40625 1089.027344 990.667969 1114.417969 1011.964844 1114.417969 C 1033.257812 1114.417969 1050.523438 1089.027344 1050.523438 1057.6875 C 1050.523438 1026.359375 1033.257812 1000.953125 1011.964844 1000.953125 " fill-opacity="1" fill-rule="nonzero"/><path fill="#ff0000" d="M 1451.832031 1053.25 C 1440.972656 1053.25 1432.167969 1044.445312 1432.167969 1033.574219 C 1432.167969 1022.714844 1440.972656 1013.914062 1451.832031 1013.914062 C 1462.691406 1013.914062 1471.492188 1022.714844 1471.492188 1033.574219 C 1471.492188 1044.445312 1462.691406 1053.25 1451.832031 1053.25 Z M 1463.941406 1000.953125 C 1442.636719 1000.953125 1425.371094 1026.359375 1425.371094 1057.6875 C 1425.371094 1089.027344 1442.636719 1114.417969 1463.941406 1114.417969 C 1485.222656 1114.417969 1502.492188 1089.027344 1502.492188 1057.6875 C 1502.492188 1026.359375 1485.222656 1000.953125 1463.941406 1000.953125 " fill-opacity="1" fill-rule="nonzero"/><g clip-path="url(#cfb6d6280e)"><path fill="#ff0000" d="M 1307.976562 718.257812 C 1300.683594 716.226562 1293.328125 714.511719 1285.933594 713.128906 C 1244.894531 705.46875 1206.023438 688.835938 1172.902344 663.429688 C 1148.28125 644.539062 1133.445312 628.539062 1128.8125 621.378906 C 1128.222656 667.058594 1137.308594 699.761719 1152.242188 722.839844 C 786.382812 834.878906 882.234375 1176.824219 882.234375 1176.824219 C 885.375 1030.953125 935.128906 964.226562 965.5625 936.925781 C 979.128906 924.75 997.664062 919.746094 1015.535156 923.34375 C 1147.773438 949.953125 1130.441406 1143.636719 1130.441406 1143.636719 L 1226.898438 1047.179688 C 1233.003906 1041.085938 1242.894531 1041.085938 1249 1047.179688 L 1345.457031 1143.636719 C 1345.457031 1143.636719 1328.117188 949.953125 1460.363281 923.34375 C 1478.234375 919.746094 1496.773438 924.75 1510.332031 936.925781 C 1540.761719 964.226562 1590.527344 1030.953125 1593.664062 1176.824219 C 1593.664062 1176.824219 1692.238281 825.195312 1307.976562 718.257812 " fill-opacity="1" fill-rule="nonzero"/></g><g clip-path="url(#429436ad10)"><path fill="#ffffff" d="M 315.429688 1163.941406 L 2415.070312 1163.941406 L 2415.070312 1442.492188 L 315.429688 1442.492188 Z M 315.429688 1163.941406 " fill-opacity="1" fill-rule="nonzero"/></g><g clip-path="url(#8acf170b9d)"><path fill="#ff0000" d="M 283.925781 1259.398438 L 2350.265625 1259.398438 L 2350.265625 1529.347656 L 283.925781 1529.347656 Z M 283.925781 1259.398438 " fill-opacity="1" fill-rule="nonzero"/></g><g clip-path="url(#109c32d59f)"><path fill="#ffffff" d="M 1078.453125 1284.125 L 2325.394531 1284.125 L 2325.394531 1504.019531 L 1078.453125 1504.019531 Z M 1078.453125 1284.125 " fill-opacity="1" fill-rule="nonzero"/></g><g fill="#fa0000" fill-opacity="1"><g transform="translate(1184.617203, 1475.809515)"><g><path d="M 17.109375 -160.71875 L 127.234375 -160.71875 L 127.234375 -130.609375 L 56.140625 -130.609375 L 56.140625 -95.671875 L 117.828125 -95.671875 L 117.828125 -65.296875 L 56.140625 -65.296875 L 56.140625 -30.125 L 127.234375 -30.125 L 127.234375 0 L 17.109375 0 Z M 17.109375 -160.71875 "/></g></g></g><g fill="#fa0000" fill-opacity="1"><g transform="translate(1332.327675, 1475.809515)"><g><path d="M 157.359375 -160.71875 L 157.359375 0 L 127.953125 0 L 53.015625 -97.828125 L 53.015625 0 L 17.109375 0 L 17.109375 -160.71875 L 50.359375 -160.71875 L 121.453125 -65.0625 L 121.453125 -160.71875 Z M 157.359375 -160.71875 "/></g></g></g><g fill="#fa0000" fill-opacity="1"><g transform="translate(1511.604327, 1475.809515)"><g><path d="M 88.671875 3.375 C 63.773438 3.375 44.5 -3.367188 30.84375 -16.859375 C 17.1875 -30.359375 10.359375 -51.488281 10.359375 -80.25 C 10.359375 -108.675781 17.265625 -129.796875 31.078125 -143.609375 C 44.898438 -157.429688 64.097656 -164.34375 88.671875 -164.34375 C 108.109375 -164.34375 127.226562 -160.40625 146.03125 -152.53125 L 146.03125 -117.109375 C 135.101562 -122.890625 125.660156 -127.144531 117.703125 -129.875 C 109.753906 -132.613281 101.6875 -133.984375 93.5 -133.984375 C 78.875 -133.984375 67.988281 -129.925781 60.84375 -121.8125 C 53.695312 -113.695312 50.125 -99.921875 50.125 -80.484375 C 50.125 -61.367188 53.738281 -47.671875 60.96875 -39.390625 C 68.195312 -31.117188 78.476562 -26.984375 91.8125 -26.984375 C 101.289062 -26.984375 108.679688 -28.269531 113.984375 -30.84375 L 113.984375 -59.28125 L 87.46875 -59.28125 L 87.46875 -89.640625 L 153.015625 -89.640625 L 153.015625 -13.96875 C 132.128906 -2.40625 110.679688 3.375 88.671875 3.375 Z M 88.671875 3.375 "/></g></g></g><g fill="#fa0000" fill-opacity="1"><g transform="translate(1686.543642, 1475.809515)"><g><path d="M 17.109375 -160.71875 L 56.140625 -160.71875 L 56.140625 -30.609375 L 126.03125 -30.609375 L 126.03125 0 L 17.109375 0 Z M 17.109375 -160.71875 "/></g></g></g><g fill="#fa0000" fill-opacity="1"><g transform="translate(1825.097521, 1475.809515)"><g><path d="M 17.109375 -160.71875 L 56.140625 -160.71875 L 56.140625 0 L 17.109375 0 Z M 17.109375 -160.71875 "/></g></g></g><g fill="#fa0000" fill-opacity="1"><g transform="translate(1903.169607, 1475.809515)"><g><path d="M 71.078125 3.375 C 58.867188 3.375 48.265625 2.53125 39.265625 0.84375 C 30.273438 -0.84375 21.925781 -3.695312 14.21875 -7.71875 L 14.21875 -44.8125 C 21.445312 -39.03125 29.675781 -34.570312 38.90625 -31.4375 C 48.144531 -28.3125 57.1875 -26.75 66.03125 -26.75 C 81.125 -26.75 88.671875 -32.453125 88.671875 -43.859375 C 88.671875 -48.835938 86.257812 -52.734375 81.4375 -55.546875 C 76.625 -58.359375 68.835938 -61.53125 58.078125 -65.0625 C 53.097656 -66.664062 50.046875 -67.707031 48.921875 -68.1875 C 37.347656 -72.050781 28.226562 -77.273438 21.5625 -83.859375 C 14.894531 -90.441406 11.5625 -100.238281 11.5625 -113.25 C 11.5625 -122.40625 13.8125 -130.878906 18.3125 -138.671875 C 22.8125 -146.460938 29.71875 -152.6875 39.03125 -157.34375 C 48.351562 -162.007812 59.84375 -164.34375 73.5 -164.34375 C 82.976562 -164.34375 91.128906 -163.5 97.953125 -161.8125 C 104.773438 -160.125 112.046875 -157.429688 119.765625 -153.734375 L 119.765625 -116.390625 C 113.015625 -121.523438 105.78125 -125.78125 98.0625 -129.15625 C 90.351562 -132.53125 82.566406 -134.21875 74.703125 -134.21875 C 67.628906 -134.21875 61.960938 -132.8125 57.703125 -130 C 53.453125 -127.1875 51.328125 -123.128906 51.328125 -117.828125 C 51.328125 -113.648438 52.609375 -110.234375 55.171875 -107.578125 C 57.742188 -104.929688 60.914062 -102.882812 64.6875 -101.4375 C 68.46875 -100 74.535156 -97.992188 82.890625 -95.421875 C 92.847656 -92.535156 101.039062 -89.320312 107.46875 -85.78125 C 113.894531 -82.25 119.035156 -77.507812 122.890625 -71.5625 C 126.742188 -65.625 128.671875 -57.992188 128.671875 -48.671875 C 128.671875 -38.878906 126.421875 -30.046875 121.921875 -22.171875 C 117.429688 -14.296875 110.804688 -8.066406 102.046875 -3.484375 C 93.296875 1.085938 82.972656 3.375 71.078125 3.375 Z M 71.078125 3.375 "/></g></g></g><g fill="#fa0000" fill-opacity="1"><g transform="translate(2047.024647, 1475.809515)"><g><path d="M 17.109375 -160.71875 L 56.140625 -160.71875 L 56.140625 -95.671875 L 115.1875 -95.671875 L 115.1875 -160.71875 L 153.984375 -160.71875 L 153.984375 0 L 115.1875 0 L 115.1875 -63.859375 L 56.140625 -63.859375 L 56.140625 0 L 17.109375 0 Z M 17.109375 -160.71875 "/></g></g></g><g fill="#ffffff" fill-opacity="1"><g transform="translate(402.68059, 1475.829183)"><g><path d="M 237.53125 -160.84375 L 192.4375 0 L 153.859375 0 L 121.78125 -104.421875 L 89.703125 0 L 51.125 0 L 6.03125 -160.84375 L 48.71875 -160.84375 L 74.03125 -48.46875 L 106.59375 -160.84375 L 136.734375 -160.84375 L 169.53125 -48.234375 L 194.859375 -160.84375 Z M 237.53125 -160.84375 "/></g></g></g><g fill="#ffffff" fill-opacity="1"><g transform="translate(651.07355, 1475.829183)"><g><path d="M 17.125 -160.84375 L 56.1875 -160.84375 L 56.1875 0 L 17.125 0 Z M 17.125 -160.84375 "/></g></g></g><g fill="#ffffff" fill-opacity="1"><g transform="translate(729.208867, 1475.829183)"><g><path d="M 67.53125 -62.9375 L 56.1875 -50.15625 L 56.1875 0 L 17.125 0 L 17.125 -160.84375 L 56.1875 -160.84375 L 56.1875 -93.8125 L 105.390625 -160.84375 L 154.578125 -160.84375 L 94.296875 -92.84375 L 159.640625 0 L 110.6875 0 Z M 67.53125 -62.9375 "/></g></g></g><g fill="#ffffff" fill-opacity="1"><g transform="translate(898.019634, 1475.829183)"><g><path d="M 17.125 -160.84375 L 56.1875 -160.84375 L 56.1875 0 L 17.125 0 Z M 17.125 -160.84375 "/></g></g></g></svg>