<svg xmlns="http://www.w3.org/2000/svg" xmlns:xlink="http://www.w3.org/1999/xlink" width="3477" zoomAndPan="magnify" viewBox="0 0 2607.75 2607.749923" height="26" preserveAspectRatio="xMidYMid meet" version="1.0"><defs><g/><clipPath id="d20692e3e4"><path d="M 0 0 L 2607.382812 0 L 2607.382812 2607.382812 L 0 2607.382812 Z M 0 0 " clip-rule="nonzero"/></clipPath><clipPath id="b6e49f4b8c"><path d="M 1249 417 L 1780 417 L 1780 1138 L 1249 1138 Z M 1249 417 " clip-rule="nonzero"/></clipPath><clipPath id="1b419647f5"><path d="M 1248.949219 416.757812 L 1889.972656 665.664062 L 1698.070312 1159.886719 L 1057.046875 910.984375 Z M 1248.949219 416.757812 " clip-rule="nonzero"/></clipPath><clipPath id="9cc1739cd2"><path d="M 1248.949219 416.757812 L 1889.972656 665.664062 L 1698.070312 1159.886719 L 1057.046875 910.984375 Z M 1248.949219 416.757812 " clip-rule="nonzero"/></clipPath><clipPath id="2f0d8b365e"><path d="M 920 698 L 1619 698 L 1619 1334 L 920 1334 Z M 920 698 " clip-rule="nonzero"/></clipPath><clipPath id="e461a2e1d0"><path d="M 1530.773438 1336.328125 L 917.316406 852.347656 L 1163.488281 540.320312 L 1776.945312 1024.300781 Z M 1530.773438 1336.328125 " clip-rule="nonzero"/></clipPath><clipPath id="649159559e"><path d="M 1530.773438 1336.328125 L 917.316406 852.347656 L 1163.488281 540.320312 L 1776.945312 1024.300781 Z M 1530.773438 1336.328125 " clip-rule="nonzero"/></clipPath><clipPath id="ff8fed7898"><path d="M 1315 1218 L 1756.402344 1218 L 1756.402344 1392 L 1315 1392 Z M 1315 1218 " clip-rule="nonzero"/></clipPath><clipPath id="166de4d73a"><path d="M 719.300781 1218 L 1162 1218 L 1162 1393.753906 L 719.300781 1393.753906 Z M 719.300781 1218 " clip-rule="nonzero"/></clipPath><clipPath id="b6640eaf50"><path d="M 870 621.363281 L 1605 621.363281 L 1605 1177 L 870 1177 Z M 870 621.363281 " clip-rule="nonzero"/></clipPath><clipPath id="a3f16030ea"><path d="M 315.429688 1163.941406 L 2415.070312 1163.941406 L 2415.070312 1442.492188 L 315.429688 1442.492188 Z M 315.429688 1163.941406 " clip-rule="nonzero"/></clipPath><clipPath id="50b0ba6870"><path d="M 283.925781 1259.398438 L 2350.265625 1259.398438 L 2350.265625 1529.347656 L 283.925781 1529.347656 Z M 283.925781 1259.398438 " clip-rule="nonzero"/></clipPath><clipPath id="874a341994"><path d="M 1078.453125 1284.125 L 2325.394531 1284.125 L 2325.394531 1504.019531 L 1078.453125 1504.019531 Z M 1078.453125 1284.125 " clip-rule="nonzero"/></clipPath><clipPath id="464f39cf0c"><path d="M 97.664062 73.984375 L 2549.820312 73.984375 L 2549.820312 2526.136719 L 97.664062 2526.136719 Z M 97.664062 73.984375 " clip-rule="nonzero"/></clipPath></defs><g clip-path="url(#d20692e3e4)"><path fill="#ffffff" d="M 0 0 L 2607.382812 0 L 2607.382812 2607.382812 L 0 2607.382812 Z M 0 0 " fill-opacity="1" fill-rule="nonzero"/><path fill="#ffffff" d="M 0 0 L 2607.382812 0 L 2607.382812 2607.382812 L 0 2607.382812 Z M 0 0 " fill-opacity="1" fill-rule="nonzero"/></g><g clip-path="url(#b6e49f4b8c)"><g clip-path="url(#1b419647f5)"><g clip-path="url(#9cc1739cd2)"><path fill="#ff0000" d="M 1314.851562 719.574219 C 1330.578125 698.101562 1442 769.296875 1473.644531 793.558594 C 1501.707031 815.070312 1586.632812 891.089844 1568.523438 915.816406 C 1556.09375 932.789062 1448.179688 866.164062 1411.675781 837.847656 C 1378.667969 812.246094 1294.128906 747.867188 1314.851562 719.574219 Z M 1330.390625 632.847656 C 1360.863281 622.847656 1401.546875 569.792969 1495.921875 626.4375 C 1545.695312 656.3125 1593.167969 707.445312 1615.46875 747.5625 C 1558.105469 701.769531 1474.8125 582.402344 1357.285156 640.664062 C 1338.953125 649.75 1298.589844 679.734375 1288.070312 704.945312 C 1263.300781 764.292969 1510.542969 958.90625 1591.386719 937.929688 L 1622.21875 868.613281 C 1647.394531 872.941406 1687.164062 900.640625 1713.019531 913.023438 C 1696.714844 988.769531 1613.410156 1099.605469 1620.8125 1117.390625 C 1634.703125 1135.332031 1649.507812 1134.851562 1670.234375 1137.316406 C 1697.261719 1046.628906 1683.746094 1033.433594 1729.40625 923.636719 L 1779.695312 948.316406 C 1777.59375 924.398438 1767.386719 914.746094 1759.34375 891.902344 C 1743.675781 847.414062 1766.78125 852.707031 1761.207031 826.621094 C 1752.125 827.300781 1756.011719 825.140625 1742.269531 840.140625 C 1741.773438 840.683594 1741.050781 842.0625 1740.167969 842.742188 C 1735.09375 830.914062 1732.820312 821.640625 1728.289062 808.582031 L 1686.875 706.511719 C 1644.386719 605.457031 1680.292969 637.527344 1587.996094 590.347656 C 1529.996094 560.699219 1286.242188 431.242188 1249.171875 417.3125 C 1262.386719 452.160156 1272.789062 486.0625 1289.019531 523.90625 Z M 1330.390625 632.847656 " fill-opacity="1" fill-rule="evenodd"/></g></g></g><g clip-path="url(#2f0d8b365e)"><g clip-path="url(#e461a2e1d0)"><g clip-path="url(#649159559e)"><path fill="#ffffff" d="M 1526.179688 1332.257812 C 1523.523438 1330.160156 1523.070312 1326.308594 1525.164062 1323.652344 C 1654.609375 1159.578125 1626.539062 921.636719 1462.464844 792.195312 C 1298.390625 662.75 1060.449219 690.820312 931.007812 854.894531 C 928.910156 857.550781 925.058594 858.003906 922.398438 855.910156 C 919.742188 853.8125 919.289062 849.960938 921.386719 847.300781 C 1055.019531 677.917969 1300.667969 648.933594 1470.054688 782.570312 C 1639.441406 916.207031 1668.421875 1161.855469 1534.789062 1331.242188 C 1532.691406 1333.898438 1528.835938 1334.355469 1526.179688 1332.257812 Z M 1526.179688 1332.257812 " fill-opacity="1" fill-rule="evenodd"/></g></g></g><path fill="#ff0000" d="M 915.140625 1039.53125 C 915.140625 1039.53125 952.015625 939.113281 990.59375 934.574219 C 1029.171875 930.039062 1067.820312 956.691406 1096.683594 1007.195312 C 1096.683594 1007.195312 1022.933594 928.152344 990.027344 946.875 C 957.121094 965.597656 915.140625 1039.53125 915.140625 1039.53125 " fill-opacity="1" fill-rule="nonzero"/><path fill="#ff0000" d="M 1227.183594 1067.917969 L 1112.570312 1176.824219 L 1237.949219 1230.152344 L 1363.328125 1176.824219 L 1248.714844 1067.917969 C 1242.683594 1062.195312 1233.214844 1062.195312 1227.183594 1067.917969 " fill-opacity="1" fill-rule="nonzero"/><g clip-path="url(#ff8fed7898)"><path fill="#ff0000" d="M 1315.070312 1260.140625 C 1510.140625 1270.628906 1674.347656 1321.246094 1756.566406 1391.070312 C 1721.789062 1306.503906 1566.394531 1238.707031 1365.300781 1218.320312 L 1315.070312 1260.140625 " fill-opacity="1" fill-rule="nonzero"/></g><g clip-path="url(#166de4d73a)"><path fill="#ff0000" d="M 1110.71875 1218.421875 C 907.773438 1239.1875 751.585938 1308.253906 719.332031 1394.050781 C 799.90625 1323.070312 964.625 1271.339844 1161.050781 1260.324219 L 1110.71875 1218.421875 " fill-opacity="1" fill-rule="nonzero"/></g><path fill="#ff0000" d="M 1237.949219 1244.902344 L 1112.570312 1205.191406 L 1237.949219 1309.578125 L 1363.328125 1205.191406 L 1237.949219 1244.902344 " fill-opacity="1" fill-rule="nonzero"/><path fill="#ff0606" d="M 1237.949219 1230.152344 L 1335.628906 1188.613281 L 1237.949219 1230.152344 " fill-opacity="1" fill-rule="nonzero"/><path fill="#ff0000" d="M 1237.949219 1230.152344 L 1140.265625 1188.613281 L 1237.949219 1156.402344 L 1335.628906 1188.613281 L 1237.949219 1230.152344 " fill-opacity="1" fill-rule="nonzero"/><path fill="#ff0000" d="M 1560.757812 1039.53125 C 1560.757812 1039.53125 1523.882812 939.113281 1485.304688 934.574219 C 1446.726562 930.039062 1408.082031 956.691406 1379.214844 1007.195312 C 1379.214844 1007.195312 1452.964844 928.152344 1485.871094 946.875 C 1518.773438 965.597656 1560.757812 1039.53125 1560.757812 1039.53125 " fill-opacity="1" fill-rule="nonzero"/><path fill="#ff0000" d="M 1043.738281 1033.574219 C 1043.738281 1044.445312 1034.929688 1053.25 1024.066406 1053.25 C 1013.207031 1053.25 1004.402344 1044.445312 1004.402344 1033.574219 C 1004.402344 1022.714844 1013.207031 1013.914062 1024.066406 1013.914062 C 1034.929688 1013.914062 1043.738281 1022.714844 1043.738281 1033.574219 Z M 1011.964844 1000.953125 C 990.667969 1000.953125 973.40625 1026.359375 973.40625 1057.6875 C 973.40625 1089.027344 990.667969 1114.417969 1011.964844 1114.417969 C 1033.257812 1114.417969 1050.523438 1089.027344 1050.523438 1057.6875 C 1050.523438 1026.359375 1033.257812 1000.953125 1011.964844 1000.953125 " fill-opacity="1" fill-rule="nonzero"/><path fill="#ff0000" d="M 1451.832031 1053.25 C 1440.972656 1053.25 1432.167969 1044.445312 1432.167969 1033.574219 C 1432.167969 1022.714844 1440.972656 1013.914062 1451.832031 1013.914062 C 1462.691406 1013.914062 1471.492188 1022.714844 1471.492188 1033.574219 C 1471.492188 1044.445312 1462.691406 1053.25 1451.832031 1053.25 Z M 1463.941406 1000.953125 C 1442.636719 1000.953125 1425.371094 1026.359375 1425.371094 1057.6875 C 1425.371094 1089.027344 1442.636719 1114.417969 1463.941406 1114.417969 C 1485.222656 1114.417969 1502.492188 1089.027344 1502.492188 1057.6875 C 1502.492188 1026.359375 1485.222656 1000.953125 1463.941406 1000.953125 " fill-opacity="1" fill-rule="nonzero"/><g clip-path="url(#b6640eaf50)"><path fill="#ff0000" d="M 1307.976562 718.257812 C 1300.683594 716.226562 1293.328125 714.511719 1285.933594 713.128906 C 1244.894531 705.46875 1206.023438 688.835938 1172.902344 663.429688 C 1148.28125 644.539062 1133.445312 628.539062 1128.8125 621.378906 C 1128.222656 667.058594 1137.308594 699.761719 1152.242188 722.839844 C 786.382812 834.878906 882.234375 1176.824219 882.234375 1176.824219 C 885.375 1030.953125 935.128906 964.226562 965.5625 936.925781 C 979.128906 924.75 997.664062 919.746094 1015.535156 923.34375 C 1147.773438 949.953125 1130.441406 1143.636719 1130.441406 1143.636719 L 1226.898438 1047.179688 C 1233.003906 1041.085938 1242.894531 1041.085938 1249 1047.179688 L 1345.457031 1143.636719 C 1345.457031 1143.636719 1328.117188 949.953125 1460.363281 923.34375 C 1478.234375 919.746094 1496.773438 924.75 1510.332031 936.925781 C 1540.761719 964.226562 1590.527344 1030.953125 1593.664062 1176.824219 C 1593.664062 1176.824219 1692.238281 825.195312 1307.976562 718.257812 " fill-opacity="1" fill-rule="nonzero"/></g><g clip-path="url(#a3f16030ea)"><path fill="#ffffff" d="M 315.429688 1163.941406 L 2415.070312 1163.941406 L 2415.070312 1442.492188 L 315.429688 1442.492188 Z M 315.429688 1163.941406 " fill-opacity="1" fill-rule="nonzero"/></g><g clip-path="url(#50b0ba6870)"><path fill="#ff0000" d="M 283.925781 1259.398438 L 2350.265625 1259.398438 L 2350.265625 1529.347656 L 283.925781 1529.347656 Z M 283.925781 1259.398438 " fill-opacity="1" fill-rule="nonzero"/></g><g clip-path="url(#874a341994)"><path fill="#ffffff" d="M 1078.453125 1284.125 L 2325.394531 1284.125 L 2325.394531 1504.019531 L 1078.453125 1504.019531 Z M 1078.453125 1284.125 " fill-opacity="1" fill-rule="nonzero"/></g><g clip-path="url(#464f39cf0c)"><path fill="#ff0000" d="M 1323.761719 2526.171875 C 646.378906 2526.171875 97.664062 1973.671875 97.664062 1300.078125 C 97.664062 626.484375 646.378906 73.984375 1323.761719 73.984375 C 2001.140625 73.984375 2549.855469 622.699219 2549.855469 1300.078125 C 2549.855469 1977.457031 1997.355469 2526.171875 1323.761719 2526.171875 Z M 1323.761719 149.667969 C 688.007812 149.667969 173.351562 664.324219 173.351562 1300.078125 C 173.351562 1935.832031 688.007812 2450.488281 1323.761719 2450.488281 C 1959.511719 2450.488281 2474.171875 1935.832031 2474.171875 1300.078125 C 2474.171875 664.324219 1955.730469 149.667969 1323.761719 149.667969 Z M 1323.761719 149.667969 " fill-opacity="1" fill-rule="nonzero"/></g><g fill="#fa0000" fill-opacity="1"><g transform="translate(1184.617203, 1475.809515)"><g><path d="M 17.109375 -160.71875 L 127.234375 -160.71875 L 127.234375 -130.609375 L 56.140625 -130.609375 L 56.140625 -95.671875 L 117.828125 -95.671875 L 117.828125 -65.296875 L 56.140625 -65.296875 L 56.140625 -30.125 L 127.234375 -30.125 L 127.234375 0 L 17.109375 0 Z M 17.109375 -160.71875 "/></g></g></g><g fill="#fa0000" fill-opacity="1"><g transform="translate(1332.327675, 1475.809515)"><g><path d="M 157.359375 -160.71875 L 157.359375 0 L 127.953125 0 L 53.015625 -97.828125 L 53.015625 0 L 17.109375 0 L 17.109375 -160.71875 L 50.359375 -160.71875 L 121.453125 -65.0625 L 121.453125 -160.71875 Z M 157.359375 -160.71875 "/></g></g></g><g fill="#fa0000" fill-opacity="1"><g transform="translate(1511.604327, 1475.809515)"><g><path d="M 88.671875 3.375 C 63.773438 3.375 44.5 -3.367188 30.84375 -16.859375 C 17.1875 -30.359375 10.359375 -51.488281 10.359375 -80.25 C 10.359375 -108.675781 17.265625 -129.796875 31.078125 -143.609375 C 44.898438 -157.429688 64.097656 -164.34375 88.671875 -164.34375 C 108.109375 -164.34375 127.226562 -160.40625 146.03125 -152.53125 L 146.03125 -117.109375 C 135.101562 -122.890625 125.660156 -127.144531 117.703125 -129.875 C 109.753906 -132.613281 101.6875 -133.984375 93.5 -133.984375 C 78.875 -133.984375 67.988281 -129.925781 60.84375 -121.8125 C 53.695312 -113.695312 50.125 -99.921875 50.125 -80.484375 C 50.125 -61.367188 53.738281 -47.671875 60.96875 -39.390625 C 68.195312 -31.117188 78.476562 -26.984375 91.8125 -26.984375 C 101.289062 -26.984375 108.679688 -28.269531 113.984375 -30.84375 L 113.984375 -59.28125 L 87.46875 -59.28125 L 87.46875 -89.640625 L 153.015625 -89.640625 L 153.015625 -13.96875 C 132.128906 -2.40625 110.679688 3.375 88.671875 3.375 Z M 88.671875 3.375 "/></g></g></g><g fill="#fa0000" fill-opacity="1"><g transform="translate(1686.543642, 1475.809515)"><g><path d="M 17.109375 -160.71875 L 56.140625 -160.71875 L 56.140625 -30.609375 L 126.03125 -30.609375 L 126.03125 0 L 17.109375 0 Z M 17.109375 -160.71875 "/></g></g></g><g fill="#fa0000" fill-opacity="1"><g transform="translate(1825.097521, 1475.809515)"><g><path d="M 17.109375 -160.71875 L 56.140625 -160.71875 L 56.140625 0 L 17.109375 0 Z M 17.109375 -160.71875 "/></g></g></g><g fill="#fa0000" fill-opacity="1"><g transform="translate(1903.169607, 1475.809515)"><g><path d="M 71.078125 3.375 C 58.867188 3.375 48.265625 2.53125 39.265625 0.84375 C 30.273438 -0.84375 21.925781 -3.695312 14.21875 -7.71875 L 14.21875 -44.8125 C 21.445312 -39.03125 29.675781 -34.570312 38.90625 -31.4375 C 48.144531 -28.3125 57.1875 -26.75 66.03125 -26.75 C 81.125 -26.75 88.671875 -32.453125 88.671875 -43.859375 C 88.671875 -48.835938 86.257812 -52.734375 81.4375 -55.546875 C 76.625 -58.359375 68.835938 -61.53125 58.078125 -65.0625 C 53.097656 -66.664062 50.046875 -67.707031 48.921875 -68.1875 C 37.347656 -72.050781 28.226562 -77.273438 21.5625 -83.859375 C 14.894531 -90.441406 11.5625 -100.238281 11.5625 -113.25 C 11.5625 -122.40625 13.8125 -130.878906 18.3125 -138.671875 C 22.8125 -146.460938 29.71875 -152.6875 39.03125 -157.34375 C 48.351562 -162.007812 59.84375 -164.34375 73.5 -164.34375 C 82.976562 -164.34375 91.128906 -163.5 97.953125 -161.8125 C 104.773438 -160.125 112.046875 -157.429688 119.765625 -153.734375 L 119.765625 -116.390625 C 113.015625 -121.523438 105.78125 -125.78125 98.0625 -129.15625 C 90.351562 -132.53125 82.566406 -134.21875 74.703125 -134.21875 C 67.628906 -134.21875 61.960938 -132.8125 57.703125 -130 C 53.453125 -127.1875 51.328125 -123.128906 51.328125 -117.828125 C 51.328125 -113.648438 52.609375 -110.234375 55.171875 -107.578125 C 57.742188 -104.929688 60.914062 -102.882812 64.6875 -101.4375 C 68.46875 -100 74.535156 -97.992188 82.890625 -95.421875 C 92.847656 -92.535156 101.039062 -89.320312 107.46875 -85.78125 C 113.894531 -82.25 119.035156 -77.507812 122.890625 -71.5625 C 126.742188 -65.625 128.671875 -57.992188 128.671875 -48.671875 C 128.671875 -38.878906 126.421875 -30.046875 121.921875 -22.171875 C 117.429688 -14.296875 110.804688 -8.066406 102.046875 -3.484375 C 93.296875 1.085938 82.972656 3.375 71.078125 3.375 Z M 71.078125 3.375 "/></g></g></g><g fill="#fa0000" fill-opacity="1"><g transform="translate(2047.024647, 1475.809515)"><g><path d="M 17.109375 -160.71875 L 56.140625 -160.71875 L 56.140625 -95.671875 L 115.1875 -95.671875 L 115.1875 -160.71875 L 153.984375 -160.71875 L 153.984375 0 L 115.1875 0 L 115.1875 -63.859375 L 56.140625 -63.859375 L 56.140625 0 L 17.109375 0 Z M 17.109375 -160.71875 "/></g></g></g><g fill="#ffffff" fill-opacity="1"><g transform="translate(402.68059, 1475.829183)"><g><path d="M 237.53125 -160.84375 L 192.4375 0 L 153.859375 0 L 121.78125 -104.421875 L 89.703125 0 L 51.125 0 L 6.03125 -160.84375 L 48.71875 -160.84375 L 74.03125 -48.46875 L 106.59375 -160.84375 L 136.734375 -160.84375 L 169.53125 -48.234375 L 194.859375 -160.84375 Z M 237.53125 -160.84375 "/></g></g></g><g fill="#ffffff" fill-opacity="1"><g transform="translate(651.07355, 1475.829183)"><g><path d="M 17.125 -160.84375 L 56.1875 -160.84375 L 56.1875 0 L 17.125 0 Z M 17.125 -160.84375 "/></g></g></g><g fill="#ffffff" fill-opacity="1"><g transform="translate(729.208867, 1475.829183)"><g><path d="M 67.53125 -62.9375 L 56.1875 -50.15625 L 56.1875 0 L 17.125 0 L 17.125 -160.84375 L 56.1875 -160.84375 L 56.1875 -93.8125 L 105.390625 -160.84375 L 154.578125 -160.84375 L 94.296875 -92.84375 L 159.640625 0 L 110.6875 0 Z M 67.53125 -62.9375 "/></g></g></g><g fill="#ffffff" fill-opacity="1"><g transform="translate(898.019634, 1475.829183)"><g><path d="M 17.125 -160.84375 L 56.1875 -160.84375 L 56.1875 0 L 17.125 0 Z M 17.125 -160.84375 "/></g></g></g><g fill="#ff0000" fill-opacity="1"><g transform="translate(330.250113, 1668.629462)"><g><path d="M 88.46875 -91.921875 C 85.433594 -93.851562 78.808594 -92.195312 78.808594 -88.609375 C 78.808594 -73.011719 73.148438 -45.269531 69.976562 -35.882812 C 66.109375 -23.878906 61.417969 -14.492188 57.414062 -10.074219 C 56.035156 -8.417969 54.65625 -6.761719 53.273438 -11.59375 C 52.585938 -16.425781 53.136719 -31.882812 52.171875 -38.230469 C 51.480469 -42.371094 47.476562 -44.992188 42.371094 -44.992188 C 34.640625 -45.132812 32.984375 -39.609375 32.160156 -38.09375 C 27.191406 -26.636719 21.808594 -16.5625 17.390625 -9.9375 C 15.183594 -6.761719 15.871094 -5.660156 15.871094 -11.457031 C 15.871094 -30.226562 19.738281 -47.0625 22.359375 -63.625 C 23.324219 -69.976562 25.257812 -79.222656 25.671875 -86.398438 C 25.808594 -90.953125 24.707031 -92.609375 20.152344 -95.09375 L 20.011719 -95.09375 C 16.285156 -96.335938 11.316406 -94.542969 11.042969 -91.78125 C 10.902344 -89.023438 10.214844 -86.675781 9.800781 -85.019531 L 5.519531 -59.898438 C 2.898438 -44.027344 0.136719 -26.914062 -0.277344 -11.179688 C -0.414062 -5.519531 4.96875 0.828125 11.457031 2.761719 C 17.941406 4.417969 26.222656 0.964844 29.949219 -4.832031 C 32.710938 -8.832031 35.195312 -13.664062 37.125 -17.527344 C 37.125 -12.558594 37.402344 -9.9375 37.679688 -8.28125 C 40.300781 5.933594 64.59375 4.417969 71.632812 -5.933594 C 77.703125 -14.355469 82.257812 -23.1875 84.605469 -30.777344 C 90.402344 -50.238281 93.714844 -65.972656 93.992188 -76.738281 C 94.265625 -87.917969 93.851562 -89.296875 88.46875 -91.921875 Z M 88.46875 -91.921875 "/></g></g></g><g fill="#ff0000" fill-opacity="1"><g transform="translate(443.561318, 1668.629462)"><g><path d="M 50.375 -25.394531 C 44.578125 -27.050781 42.507812 -21.945312 42.507812 -21.945312 C 36.296875 -13.941406 34.226562 -11.871094 28.707031 -8.695312 C 20.980469 -4.003906 17.253906 -4.003906 14.214844 -8.003906 C 12.699219 -10.214844 11.457031 -14.90625 11.316406 -19.460938 C 11.316406 -23.050781 11.59375 -26.085938 12.144531 -27.328125 C 12.144531 -27.464844 15.320312 -27.464844 16.5625 -27.605469 C 30.917969 -29.398438 42.371094 -42.785156 40.023438 -55.484375 C 38.367188 -63.765625 26.085938 -68.179688 18.355469 -63.765625 C 14.355469 -61.417969 11.316406 -58.933594 9.386719 -56.726562 C 1.65625 -46.375 -2.070312 -38.644531 -4.003906 -26.5 C -4.832031 -21.117188 -4.140625 -17.390625 -3.863281 -13.386719 C -2.484375 -1.519531 11.730469 5.519531 27.742188 2.207031 C 37.539062 0 46.097656 -5.796875 52.308594 -13.941406 C 54.242188 -16.839844 55.070312 -18.355469 55.34375 -20.566406 C 55.484375 -23.464844 54.378906 -24.429688 50.375 -25.394531 Z M 19.460938 -48.71875 C 21.808594 -52.03125 24.015625 -54.515625 25.671875 -55.484375 C 25.808594 -55.621094 25.949219 -55.757812 26.222656 -55.757812 C 26.222656 -54.792969 26.363281 -53.550781 26.222656 -53.136719 C 25.671875 -48.859375 23.1875 -44.304688 21.945312 -42.785156 C 18.910156 -39.472656 16.425781 -37.539062 14.214844 -36.4375 C 15.457031 -41.128906 17.804688 -45.960938 19.460938 -48.71875 Z M 19.460938 -48.71875 "/></g></g></g><g fill="#ff0000" fill-opacity="1"><g transform="translate(505.116596, 1668.629462)"><g/></g></g><g fill="#ff0000" fill-opacity="1"><g transform="translate(546.797602, 1668.629462)"><g><path d="M 51.066406 -25.257812 C 47.0625 -26.636719 43.335938 -24.015625 42.09375 -18.910156 C 40.714844 -14.078125 35.195312 -6.902344 33.953125 -5.933594 C 30.503906 -3.175781 30.226562 -3.175781 28.570312 -7.316406 C 28.570312 -7.039062 27.742188 -10.074219 27.464844 -10.902344 C 25.671875 -16.285156 26.222656 -24.152344 21.808594 -31.191406 C 21.253906 -32.019531 19.597656 -33.398438 17.390625 -34.640625 C 18.21875 -36.023438 18.769531 -36.710938 20.011719 -37.679688 C 22.082031 -39.609375 23.324219 -40.578125 23.324219 -40.578125 C 30.089844 -46.925781 36.160156 -51.617188 40.023438 -58.105469 C 43.199219 -63.351562 43.0625 -64.179688 38.230469 -67.214844 C 34.367188 -69.699219 30.226562 -68.59375 27.050781 -63.765625 C 22.910156 -58.382812 20.289062 -55.070312 16.839844 -51.34375 L 22.773438 -80.050781 C 23.878906 -86.125 24.707031 -91.644531 24.980469 -97.441406 C 25.257812 -101.855469 22.910156 -104.203125 18.082031 -104.753906 C 10.074219 -106.136719 11.042969 -101.167969 10.628906 -99.925781 C 10.074219 -95.921875 9.800781 -91.78125 8.972656 -89.023438 C 5.382812 -72.183594 4.003906 -59.898438 -0.136719 -44.992188 C -1.105469 -41.542969 -1.792969 -37.816406 -2.070312 -37.816406 C -5.933594 -37.125 -8.003906 -35.195312 -7.867188 -32.710938 C -7.730469 -31.191406 -6.210938 -29.8125 -3.3125 -28.570312 L -7.039062 -6.210938 C -7.730469 -1.105469 -6.074219 0.964844 -0.277344 2.070312 C 8.972656 4.140625 8.832031 -2.070312 9.109375 -4.277344 C 9.800781 -9.386719 10.214844 -15.042969 11.042969 -20.289062 C 13.664062 -16.976562 13.25 -7.867188 16.976562 -1.933594 C 20.839844 4.691406 34.917969 7.175781 41.820312 2.484375 C 49.960938 -3.726562 54.242188 -10.214844 55.621094 -18.355469 L 55.621094 -18.632812 C 55.621094 -23.324219 55.898438 -23.878906 51.066406 -25.257812 Z M 51.066406 -25.257812 "/></g></g></g><g fill="#ff0000" fill-opacity="1"><g transform="translate(607.938823, 1668.629462)"><g><path d="M 15.457031 -73.148438 C 19.597656 -72.460938 26.363281 -78.53125 25.949219 -82.671875 C 25.808594 -85.019531 23.050781 -87.226562 18.769531 -88.054688 L 17.667969 -88.054688 C 12.285156 -87.917969 8.28125 -83.914062 8.417969 -78.53125 C 8.558594 -75.496094 11.179688 -73.425781 15.457031 -73.148438 Z M 35.882812 -17.941406 C 35.609375 -20.011719 34.917969 -20.839844 31.746094 -22.222656 C 29.121094 -23.050781 24.707031 -21.53125 23.738281 -19.738281 C 21.117188 -14.492188 18.21875 -10.902344 15.734375 -9.386719 C 13.527344 -8.003906 11.871094 -7.175781 10.902344 -7.039062 C 10.902344 -7.730469 10.628906 -9.109375 10.628906 -13.113281 C 11.316406 -24.015625 13.664062 -34.503906 16.148438 -44.441406 C 16.976562 -47.753906 17.527344 -50.789062 18.082031 -55.34375 C 18.355469 -58.242188 16.148438 -60.3125 11.730469 -61.140625 C 8.28125 -61.832031 4.140625 -60.039062 3.449219 -57.96875 L 3.3125 -57.691406 C 0.277344 -42.921875 -4.003906 -29.261719 -5.105469 -15.042969 C -5.796875 -4.96875 -0.136719 1.378906 9.386719 1.519531 C 16.839844 1.65625 26.363281 -2.207031 29.949219 -6.210938 C 34.78125 -11.457031 36.296875 -14.355469 35.882812 -17.941406 Z M 35.882812 -17.941406 "/></g></g></g><g fill="#ff0000" fill-opacity="1"><g transform="translate(650.033876, 1668.629462)"><g><path d="M 61.832031 -23.050781 C 55.484375 -24.292969 55.34375 -21.117188 54.929688 -20.289062 C 53.828125 -16.839844 47.0625 -9.246094 43.890625 -7.730469 C 43.75 -7.589844 43.613281 -7.589844 43.613281 -7.453125 L 43.199219 -8.832031 C 42.371094 -11.179688 42.507812 -15.042969 43.613281 -20.289062 C 45.683594 -30.503906 48.03125 -39.609375 49.960938 -48.445312 C 50.789062 -53 49.546875 -56.035156 44.855469 -60.589844 C 41.820312 -63.210938 34.917969 -64.179688 30.226562 -62.382812 C 24.84375 -60.039062 20.703125 -56.035156 16.839844 -52.171875 L 17.113281 -54.515625 C 17.667969 -58.519531 16.699219 -60.175781 11.59375 -61.554688 L 11.316406 -61.554688 C 6.902344 -62.382812 3.035156 -60.3125 2.207031 -56.3125 C 0.550781 -47.203125 -1.242188 -38.09375 -2.761719 -29.949219 L -7.039062 -7.730469 C -7.453125 -4.140625 -5.519531 -2.070312 -0.691406 -0.414062 C 3.863281 0.550781 7.039062 -0.964844 8.28125 -5.105469 C 12.699219 -18.910156 16.5625 -31.746094 24.152344 -41.957031 C 28.433594 -47.476562 31.605469 -51.480469 35.332031 -53.273438 L 34.917969 -51.894531 C 34.367188 -48.71875 33.675781 -46.234375 33.261719 -44.304688 C 31.46875 -34.226562 28.292969 -25.394531 27.464844 -16.285156 C 27.191406 -12.144531 27.464844 -10.074219 28.847656 -6.761719 C 30.917969 -0.828125 42.785156 4.003906 49.546875 1.242188 C 56.863281 -2.070312 62.109375 -6.347656 64.453125 -10.765625 C 66.25 -13.664062 66.9375 -15.597656 67.214844 -18.082031 C 67.492188 -20.566406 65.421875 -22.496094 61.832031 -23.050781 Z M 61.832031 -23.050781 "/></g></g></g><g fill="#ff0000" fill-opacity="1"><g transform="translate(723.458484, 1668.629462)"><g><path d="M 66.523438 -20.839844 L 66.523438 -20.980469 C 65.695312 -22.773438 65.835938 -23.324219 62.109375 -24.707031 L 61.140625 -24.707031 C 58.242188 -24.84375 55.34375 -23.601562 54.515625 -22.082031 C 52.171875 -17.113281 49.410156 -12.972656 47.339844 -10.628906 C 45.132812 -8.144531 44.855469 -8.003906 43.476562 -12.144531 C 41.265625 -18.082031 41.265625 -26.085938 43.613281 -34.367188 C 48.304688 -53.273438 50.929688 -67.492188 53.550781 -81.84375 C 54.101562 -85.019531 53.964844 -86.539062 53.273438 -89.574219 C 52.722656 -91.507812 49.546875 -93.4375 46.097656 -93.714844 L 45.546875 -93.714844 C 38.507812 -94.128906 38.644531 -90.125 38.367188 -89.4375 C 36.4375 -77.980469 33.539062 -69.285156 31.46875 -59.347656 C 24.980469 -62.796875 15.871094 -61.832031 11.179688 -57 C 1.65625 -47.339844 -3.726562 -34.503906 -4.417969 -20.011719 C -4.691406 -14.90625 -3.035156 -9.9375 0.828125 -4.003906 C 6.074219 3.863281 18.910156 5.382812 25.808594 -0.964844 C 28.433594 -3.3125 30.363281 -5.246094 31.46875 -6.761719 C 33.675781 -4.003906 37.265625 -1.933594 41.820312 -0.691406 C 47.890625 0.828125 56.3125 -1.792969 58.933594 -5.796875 C 61.417969 -8.832031 62.660156 -10.488281 63.210938 -11.457031 C 65.558594 -16.425781 66.9375 -17.667969 66.523438 -20.839844 Z M 19.183594 -12.835938 C 16.285156 -8.972656 14.628906 -7.039062 13.25 -6.347656 L 13.113281 -6.488281 C 11.730469 -8.144531 10.488281 -14.214844 10.902344 -18.496094 C 11.871094 -30.640625 14.214844 -42.507812 22.222656 -50.652344 C 22.773438 -51.203125 23.324219 -51.757812 23.738281 -52.308594 C 23.878906 -51.34375 24.292969 -50.238281 24.707031 -48.996094 C 25.121094 -48.582031 26.5 -46.925781 28.570312 -46.375 L 28.707031 -44.71875 C 28.707031 -34.917969 24.429688 -20.839844 19.183594 -12.835938 Z M 19.183594 -12.835938 "/></g></g></g><g fill="#ff0000" fill-opacity="1"><g transform="translate(796.331061, 1668.629462)"><g><path d="M 25.257812 -0.414062 C 31.746094 -5.246094 38.09375 -15.457031 39.058594 -19.183594 C 39.609375 -22.636719 39.335938 -23.1875 35.609375 -24.980469 C 32.570312 -26.222656 28.707031 -25.121094 26.777344 -22.082031 C 24.015625 -18.21875 19.738281 -10.765625 15.457031 -7.730469 C 13.386719 -6.074219 12.144531 -5.660156 11.457031 -6.074219 C 11.457031 -6.761719 10.628906 -8.144531 10.628906 -11.042969 C 10.214844 -19.183594 12.007812 -31.332031 16.148438 -47.476562 C 19.738281 -63.074219 21.808594 -73.5625 24.980469 -92.335938 L 24.980469 -92.609375 C 25.121094 -94.542969 25.394531 -96.199219 25.535156 -98.269531 C 25.671875 -100.476562 23.324219 -102.410156 18.632812 -103.375 C 15.042969 -104.066406 11.179688 -102.410156 10.628906 -100.0625 C 7.730469 -89.160156 6.902344 -81.570312 4.554688 -71.90625 C 2.898438 -63.765625 1.378906 -55.898438 -0.691406 -45.40625 C -2.484375 -35.746094 -3.3125 -26.636719 -4.832031 -18.496094 C -5.246094 -14.90625 -4.96875 -12.007812 -4.003906 -7.453125 C -1.242188 2.761719 15.320312 6.902344 25.257812 -0.414062 Z M 25.257812 -0.414062 "/></g></g></g><g fill="#ff0000" fill-opacity="1"><g transform="translate(841.876525, 1668.629462)"><g><path d="M 50.375 -25.394531 C 44.578125 -27.050781 42.507812 -21.945312 42.507812 -21.945312 C 36.296875 -13.941406 34.226562 -11.871094 28.707031 -8.695312 C 20.980469 -4.003906 17.253906 -4.003906 14.214844 -8.003906 C 12.699219 -10.214844 11.457031 -14.90625 11.316406 -19.460938 C 11.316406 -23.050781 11.59375 -26.085938 12.144531 -27.328125 C 12.144531 -27.464844 15.320312 -27.464844 16.5625 -27.605469 C 30.917969 -29.398438 42.371094 -42.785156 40.023438 -55.484375 C 38.367188 -63.765625 26.085938 -68.179688 18.355469 -63.765625 C 14.355469 -61.417969 11.316406 -58.933594 9.386719 -56.726562 C 1.65625 -46.375 -2.070312 -38.644531 -4.003906 -26.5 C -4.832031 -21.117188 -4.140625 -17.390625 -3.863281 -13.386719 C -2.484375 -1.519531 11.730469 5.519531 27.742188 2.207031 C 37.539062 0 46.097656 -5.796875 52.308594 -13.941406 C 54.242188 -16.839844 55.070312 -18.355469 55.34375 -20.566406 C 55.484375 -23.464844 54.378906 -24.429688 50.375 -25.394531 Z M 19.460938 -48.71875 C 21.808594 -52.03125 24.015625 -54.515625 25.671875 -55.484375 C 25.808594 -55.621094 25.949219 -55.757812 26.222656 -55.757812 C 26.222656 -54.792969 26.363281 -53.550781 26.222656 -53.136719 C 25.671875 -48.859375 23.1875 -44.304688 21.945312 -42.785156 C 18.910156 -39.472656 16.425781 -37.539062 14.214844 -36.4375 C 15.457031 -41.128906 17.804688 -45.960938 19.460938 -48.71875 Z M 19.460938 -48.71875 "/></g></g></g><g fill="#ff0000" fill-opacity="1"><g transform="translate(903.431803, 1668.629462)"><g/></g></g><g fill="#ff0000" fill-opacity="1"><g transform="translate(945.112821, 1668.629462)"><g><path d="M 34.917969 -97.992188 C 25.808594 -97.992188 14.90625 -97.855469 6.761719 -93.4375 C 1.65625 -90.816406 1.519531 -89.988281 5.105469 -86.953125 C 6.210938 -86.125 12.285156 -86.125 17.390625 -86.953125 C 17.253906 -86.8125 17.253906 -86.675781 17.253906 -86.539062 C 13.941406 -67.078125 9.523438 -48.582031 5.105469 -30.503906 C 2.484375 -18.910156 0.691406 -12.972656 -1.378906 -2.484375 C -1.933594 1.242188 -0.691406 2.761719 4.003906 4.003906 C 8.558594 5.105469 13.527344 2.898438 14.355469 -0.414062 L 14.628906 -1.792969 C 16.839844 -13.113281 18.910156 -22.773438 21.253906 -32.160156 C 23.738281 -31.605469 26.914062 -31.191406 30.089844 -31.46875 C 47.617188 -33.398438 62.523438 -43.199219 69.007812 -56.171875 C 78.53125 -76.460938 61.003906 -97.855469 34.917969 -97.992188 Z M 56.035156 -70.804688 C 55.898438 -63.902344 53.550781 -57.828125 49.132812 -52.722656 C 42.507812 -45.132812 33.953125 -41.128906 24.707031 -39.75 L 24.015625 -39.75 C 23.878906 -39.75 23.464844 -39.609375 23.050781 -39.609375 C 24.84375 -47.0625 26.636719 -54.65625 28.570312 -63.074219 C 30.226562 -71.078125 32.160156 -78.671875 32.570312 -86.398438 C 32.710938 -87.917969 32.019531 -89.160156 31.054688 -89.851562 C 33.675781 -90.539062 40.4375 -90.816406 50.101562 -85.15625 C 53.136719 -83.363281 56.171875 -76.324219 56.035156 -70.804688 Z M 56.035156 -70.804688 "/></g></g></g><g fill="#ff0000" fill-opacity="1"><g transform="translate(1033.443136, 1668.629462)"><g><path d="M 60.453125 -23.464844 C 58.242188 -26.085938 52.585938 -24.84375 50.101562 -20.839844 C 47.339844 -16.011719 46.234375 -15.042969 44.304688 -12.699219 C 42.09375 -9.800781 39.472656 -7.867188 38.78125 -8.28125 L 38.921875 -8.28125 C 38.921875 -8.28125 38.367188 -10.351562 38.230469 -13.800781 C 37.953125 -20.839844 41.265625 -29.121094 42.234375 -33.675781 C 42.921875 -38.09375 41.820312 -39.472656 36.4375 -40.851562 C 32.160156 -41.957031 28.292969 -40.300781 26.914062 -36.160156 C 24.429688 -27.464844 21.808594 -18.632812 16.976562 -11.316406 C 15.042969 -8.972656 14.078125 -7.730469 13.527344 -7.039062 L 13.113281 -7.453125 C 11.59375 -9.246094 11.871094 -14.769531 11.457031 -19.046875 C 12.007812 -30.777344 15.320312 -41.40625 20.839844 -49.273438 C 26.636719 -56.863281 26.363281 -56.726562 29.261719 -53.136719 C 29.949219 -52.308594 29.675781 -49.6875 29.8125 -48.445312 C 29.949219 -45.820312 33.953125 -43.476562 37.953125 -43.75 C 42.234375 -44.164062 44.164062 -45.960938 44.164062 -49.273438 C 43.890625 -55.484375 37.539062 -61.695312 29.398438 -63.902344 C 24.980469 -65.007812 19.183594 -63.902344 16.011719 -61.554688 C 9.523438 -56.449219 5.519531 -51.480469 2.207031 -44.578125 C -2.484375 -33.675781 -5.660156 -24.707031 -4.003906 -13.25 C -2.761719 -5.660156 1.378906 -0.828125 9.523438 2.070312 C 15.871094 4.003906 23.050781 1.933594 27.605469 -3.449219 C 32.710938 2.484375 44.992188 2.761719 51.34375 -3.449219 C 55.757812 -7.589844 59.210938 -12.285156 61.695312 -16.699219 C 62.9375 -19.597656 62.796875 -20.152344 60.453125 -23.464844 Z M 60.453125 -23.464844 "/></g></g></g><g fill="#ff0000" fill-opacity="1"><g transform="translate(1102.175183, 1668.629462)"><g><path d="M 13.664062 2.207031 C 21.53125 2.207031 26.222656 -0.550781 30.363281 -2.621094 C 36.4375 -5.796875 40.714844 -11.871094 40.992188 -17.390625 C 41.679688 -28.433594 36.023438 -36.023438 22.636719 -41.679688 L 22.496094 -41.679688 C 21.53125 -41.957031 18.910156 -43.0625 15.871094 -44.304688 C 14.769531 -44.71875 14.90625 -45.40625 16.425781 -46.925781 C 20.152344 -50.375 23.601562 -51.617188 33.675781 -53.550781 C 38.921875 -54.378906 40.578125 -55.621094 39.886719 -58.382812 C 39.058594 -61.695312 35.332031 -63.765625 31.054688 -63.074219 C 22.910156 -61.695312 9.9375 -59.210938 4.003906 -52.585938 C -2.484375 -45.269531 -0.277344 -38.367188 9.523438 -34.78125 C 12.421875 -33.8125 15.183594 -33.398438 18.632812 -31.46875 C 23.878906 -28.292969 25.121094 -26.636719 25.808594 -22.910156 C 26.5 -19.875 25.121094 -14.628906 23.601562 -13.386719 C 18.355469 -9.246094 17.804688 -8.972656 13.800781 -8.695312 C 9.660156 -8.417969 8.144531 -10.902344 7.175781 -19.738281 C 6.902344 -20.980469 5.105469 -22.222656 2.484375 -22.636719 C 0.136719 -23.050781 -3.175781 -21.945312 -3.863281 -20.703125 C -6.902344 -15.183594 -6.488281 -9.109375 -2.484375 -3.726562 C 0 -0.550781 7.039062 2.207031 13.664062 2.207031 Z M 13.664062 2.207031 "/></g></g></g><g fill="#ff0000" fill-opacity="1"><g transform="translate(1165.662638, 1668.629462)"><g><path d="M 13.664062 2.207031 C 21.53125 2.207031 26.222656 -0.550781 30.363281 -2.621094 C 36.4375 -5.796875 40.714844 -11.871094 40.992188 -17.390625 C 41.679688 -28.433594 36.023438 -36.023438 22.636719 -41.679688 L 22.496094 -41.679688 C 21.53125 -41.957031 18.910156 -43.0625 15.871094 -44.304688 C 14.769531 -44.71875 14.90625 -45.40625 16.425781 -46.925781 C 20.152344 -50.375 23.601562 -51.617188 33.675781 -53.550781 C 38.921875 -54.378906 40.578125 -55.621094 39.886719 -58.382812 C 39.058594 -61.695312 35.332031 -63.765625 31.054688 -63.074219 C 22.910156 -61.695312 9.9375 -59.210938 4.003906 -52.585938 C -2.484375 -45.269531 -0.277344 -38.367188 9.523438 -34.78125 C 12.421875 -33.8125 15.183594 -33.398438 18.632812 -31.46875 C 23.878906 -28.292969 25.121094 -26.636719 25.808594 -22.910156 C 26.5 -19.875 25.121094 -14.628906 23.601562 -13.386719 C 18.355469 -9.246094 17.804688 -8.972656 13.800781 -8.695312 C 9.660156 -8.417969 8.144531 -10.902344 7.175781 -19.738281 C 6.902344 -20.980469 5.105469 -22.222656 2.484375 -22.636719 C 0.136719 -23.050781 -3.175781 -21.945312 -3.863281 -20.703125 C -6.902344 -15.183594 -6.488281 -9.109375 -2.484375 -3.726562 C 0 -0.550781 7.039062 2.207031 13.664062 2.207031 Z M 13.664062 2.207031 "/></g></g></g><g fill="#ff0000" fill-opacity="1"><g transform="translate(1229.150093, 1668.629462)"><g><path d="M 15.457031 -73.148438 C 19.597656 -72.460938 26.363281 -78.53125 25.949219 -82.671875 C 25.808594 -85.019531 23.050781 -87.226562 18.769531 -88.054688 L 17.667969 -88.054688 C 12.285156 -87.917969 8.28125 -83.914062 8.417969 -78.53125 C 8.558594 -75.496094 11.179688 -73.425781 15.457031 -73.148438 Z M 35.882812 -17.941406 C 35.609375 -20.011719 34.917969 -20.839844 31.746094 -22.222656 C 29.121094 -23.050781 24.707031 -21.53125 23.738281 -19.738281 C 21.117188 -14.492188 18.21875 -10.902344 15.734375 -9.386719 C 13.527344 -8.003906 11.871094 -7.175781 10.902344 -7.039062 C 10.902344 -7.730469 10.628906 -9.109375 10.628906 -13.113281 C 11.316406 -24.015625 13.664062 -34.503906 16.148438 -44.441406 C 16.976562 -47.753906 17.527344 -50.789062 18.082031 -55.34375 C 18.355469 -58.242188 16.148438 -60.3125 11.730469 -61.140625 C 8.28125 -61.832031 4.140625 -60.039062 3.449219 -57.96875 L 3.3125 -57.691406 C 0.277344 -42.921875 -4.003906 -29.261719 -5.105469 -15.042969 C -5.796875 -4.96875 -0.136719 1.378906 9.386719 1.519531 C 16.839844 1.65625 26.363281 -2.207031 29.949219 -6.210938 C 34.78125 -11.457031 36.296875 -14.355469 35.882812 -17.941406 Z M 35.882812 -17.941406 "/></g></g></g><g fill="#ff0000" fill-opacity="1"><g transform="translate(1271.245146, 1668.629462)"><g><path d="M 39.472656 -44.71875 C 35.46875 -46.234375 30.503906 -44.304688 31.054688 -41.128906 C 31.191406 -39.472656 31.746094 -36.851562 31.332031 -35.882812 C 28.984375 -25.394531 26.636719 -15.734375 21.117188 -9.523438 C 17.390625 -5.519531 17.667969 -5.796875 16.5625 -6.210938 C 15.320312 -6.488281 13.386719 -10.628906 12.558594 -14.90625 C 11.179688 -20.839844 11.316406 -25.535156 13.113281 -32.984375 C 15.597656 -43.75 17.804688 -52.308594 26.085938 -54.929688 C 26.363281 -55.070312 26.636719 -55.070312 26.777344 -55.207031 C 26.914062 -54.929688 27.050781 -54.515625 27.328125 -54.242188 C 27.605469 -53.828125 27.464844 -52.859375 28.019531 -51.480469 C 28.707031 -49.6875 32.160156 -47.617188 35.609375 -47.476562 L 35.882812 -47.476562 C 39.195312 -47.476562 42.371094 -49.273438 42.785156 -51.203125 C 44.441406 -57.140625 36.988281 -62.9375 27.605469 -63.210938 C 19.460938 -63.625 12.007812 -60.039062 6.488281 -53.273438 C 0.277344 -45.683594 -1.933594 -40.164062 -3.863281 -27.878906 C -6.210938 -11.179688 -1.519531 -2.621094 12.699219 1.792969 C 18.769531 3.449219 28.292969 1.792969 31.605469 -1.378906 C 41.679688 -11.042969 45.960938 -21.53125 46.375 -37.539062 C 46.375 -40.714844 44.164062 -42.921875 39.472656 -44.71875 Z M 39.472656 -44.71875 "/></g></g></g><g fill="#ff0000" fill-opacity="1"><g transform="translate(1339.701201, 1668.629462)"><g><path d="M 61.832031 -23.050781 C 55.484375 -24.292969 55.34375 -21.117188 54.929688 -20.289062 C 53.828125 -16.839844 47.0625 -9.246094 43.890625 -7.730469 C 43.75 -7.589844 43.613281 -7.589844 43.613281 -7.453125 L 43.199219 -8.832031 C 42.371094 -11.179688 42.507812 -15.042969 43.613281 -20.289062 C 45.683594 -30.503906 48.03125 -39.609375 49.960938 -48.445312 C 50.789062 -53 49.546875 -56.035156 44.855469 -60.589844 C 41.820312 -63.210938 34.917969 -64.179688 30.226562 -62.382812 C 24.84375 -60.039062 20.703125 -56.035156 16.839844 -52.171875 L 17.113281 -54.515625 C 17.667969 -58.519531 16.699219 -60.175781 11.59375 -61.554688 L 11.316406 -61.554688 C 6.902344 -62.382812 3.035156 -60.3125 2.207031 -56.3125 C 0.550781 -47.203125 -1.242188 -38.09375 -2.761719 -29.949219 L -7.039062 -7.730469 C -7.453125 -4.140625 -5.519531 -2.070312 -0.691406 -0.414062 C 3.863281 0.550781 7.039062 -0.964844 8.28125 -5.105469 C 12.699219 -18.910156 16.5625 -31.746094 24.152344 -41.957031 C 28.433594 -47.476562 31.605469 -51.480469 35.332031 -53.273438 L 34.917969 -51.894531 C 34.367188 -48.71875 33.675781 -46.234375 33.261719 -44.304688 C 31.46875 -34.226562 28.292969 -25.394531 27.464844 -16.285156 C 27.191406 -12.144531 27.464844 -10.074219 28.847656 -6.761719 C 30.917969 -0.828125 42.785156 4.003906 49.546875 1.242188 C 56.863281 -2.070312 62.109375 -6.347656 64.453125 -10.765625 C 66.25 -13.664062 66.9375 -15.597656 67.214844 -18.082031 C 67.492188 -20.566406 65.421875 -22.496094 61.832031 -23.050781 Z M 61.832031 -23.050781 "/></g></g></g><g fill="#ff0000" fill-opacity="1"><g transform="translate(1413.125855, 1668.629462)"><g/></g></g><g fill="#ff0000" fill-opacity="1"><g transform="translate(1454.806873, 1668.629462)"><g><path d="M 60.453125 -23.464844 C 58.242188 -26.085938 52.585938 -24.84375 50.101562 -20.839844 C 47.339844 -16.011719 46.234375 -15.042969 44.304688 -12.699219 C 42.09375 -9.800781 39.472656 -7.867188 38.78125 -8.28125 L 38.921875 -8.28125 C 38.921875 -8.28125 38.367188 -10.351562 38.230469 -13.800781 C 37.953125 -20.839844 41.265625 -29.121094 42.234375 -33.675781 C 42.921875 -38.09375 41.820312 -39.472656 36.4375 -40.851562 C 32.160156 -41.957031 28.292969 -40.300781 26.914062 -36.160156 C 24.429688 -27.464844 21.808594 -18.632812 16.976562 -11.316406 C 15.042969 -8.972656 14.078125 -7.730469 13.527344 -7.039062 L 13.113281 -7.453125 C 11.59375 -9.246094 11.871094 -14.769531 11.457031 -19.046875 C 12.007812 -30.777344 15.320312 -41.40625 20.839844 -49.273438 C 26.636719 -56.863281 26.363281 -56.726562 29.261719 -53.136719 C 29.949219 -52.308594 29.675781 -49.6875 29.8125 -48.445312 C 29.949219 -45.820312 33.953125 -43.476562 37.953125 -43.75 C 42.234375 -44.164062 44.164062 -45.960938 44.164062 -49.273438 C 43.890625 -55.484375 37.539062 -61.695312 29.398438 -63.902344 C 24.980469 -65.007812 19.183594 -63.902344 16.011719 -61.554688 C 9.523438 -56.449219 5.519531 -51.480469 2.207031 -44.578125 C -2.484375 -33.675781 -5.660156 -24.707031 -4.003906 -13.25 C -2.761719 -5.660156 1.378906 -0.828125 9.523438 2.070312 C 15.871094 4.003906 23.050781 1.933594 27.605469 -3.449219 C 32.710938 2.484375 44.992188 2.761719 51.34375 -3.449219 C 55.757812 -7.589844 59.210938 -12.285156 61.695312 -16.699219 C 62.9375 -19.597656 62.796875 -20.152344 60.453125 -23.464844 Z M 60.453125 -23.464844 "/></g></g></g><g fill="#ff0000" fill-opacity="1"><g transform="translate(1523.53892, 1668.629462)"><g><path d="M 61.832031 -23.050781 C 55.484375 -24.292969 55.34375 -21.117188 54.929688 -20.289062 C 53.828125 -16.839844 47.0625 -9.246094 43.890625 -7.730469 C 43.75 -7.589844 43.613281 -7.589844 43.613281 -7.453125 L 43.199219 -8.832031 C 42.371094 -11.179688 42.507812 -15.042969 43.613281 -20.289062 C 45.683594 -30.503906 48.03125 -39.609375 49.960938 -48.445312 C 50.789062 -53 49.546875 -56.035156 44.855469 -60.589844 C 41.820312 -63.210938 34.917969 -64.179688 30.226562 -62.382812 C 24.84375 -60.039062 20.703125 -56.035156 16.839844 -52.171875 L 17.113281 -54.515625 C 17.667969 -58.519531 16.699219 -60.175781 11.59375 -61.554688 L 11.316406 -61.554688 C 6.902344 -62.382812 3.035156 -60.3125 2.207031 -56.3125 C 0.550781 -47.203125 -1.242188 -38.09375 -2.761719 -29.949219 L -7.039062 -7.730469 C -7.453125 -4.140625 -5.519531 -2.070312 -0.691406 -0.414062 C 3.863281 0.550781 7.039062 -0.964844 8.28125 -5.105469 C 12.699219 -18.910156 16.5625 -31.746094 24.152344 -41.957031 C 28.433594 -47.476562 31.605469 -51.480469 35.332031 -53.273438 L 34.917969 -51.894531 C 34.367188 -48.71875 33.675781 -46.234375 33.261719 -44.304688 C 31.46875 -34.226562 28.292969 -25.394531 27.464844 -16.285156 C 27.191406 -12.144531 27.464844 -10.074219 28.847656 -6.761719 C 30.917969 -0.828125 42.785156 4.003906 49.546875 1.242188 C 56.863281 -2.070312 62.109375 -6.347656 64.453125 -10.765625 C 66.25 -13.664062 66.9375 -15.597656 67.214844 -18.082031 C 67.492188 -20.566406 65.421875 -22.496094 61.832031 -23.050781 Z M 61.832031 -23.050781 "/></g></g></g><g fill="#ff0000" fill-opacity="1"><g transform="translate(1596.963574, 1668.629462)"><g><path d="M 66.523438 -20.839844 L 66.523438 -20.980469 C 65.695312 -22.773438 65.835938 -23.324219 62.109375 -24.707031 L 61.140625 -24.707031 C 58.242188 -24.84375 55.34375 -23.601562 54.515625 -22.082031 C 52.171875 -17.113281 49.410156 -12.972656 47.339844 -10.628906 C 45.132812 -8.144531 44.855469 -8.003906 43.476562 -12.144531 C 41.265625 -18.082031 41.265625 -26.085938 43.613281 -34.367188 C 48.304688 -53.273438 50.929688 -67.492188 53.550781 -81.84375 C 54.101562 -85.019531 53.964844 -86.539062 53.273438 -89.574219 C 52.722656 -91.507812 49.546875 -93.4375 46.097656 -93.714844 L 45.546875 -93.714844 C 38.507812 -94.128906 38.644531 -90.125 38.367188 -89.4375 C 36.4375 -77.980469 33.539062 -69.285156 31.46875 -59.347656 C 24.980469 -62.796875 15.871094 -61.832031 11.179688 -57 C 1.65625 -47.339844 -3.726562 -34.503906 -4.417969 -20.011719 C -4.691406 -14.90625 -3.035156 -9.9375 0.828125 -4.003906 C 6.074219 3.863281 18.910156 5.382812 25.808594 -0.964844 C 28.433594 -3.3125 30.363281 -5.246094 31.46875 -6.761719 C 33.675781 -4.003906 37.265625 -1.933594 41.820312 -0.691406 C 47.890625 0.828125 56.3125 -1.792969 58.933594 -5.796875 C 61.417969 -8.832031 62.660156 -10.488281 63.210938 -11.457031 C 65.558594 -16.425781 66.9375 -17.667969 66.523438 -20.839844 Z M 19.183594 -12.835938 C 16.285156 -8.972656 14.628906 -7.039062 13.25 -6.347656 L 13.113281 -6.488281 C 11.730469 -8.144531 10.488281 -14.214844 10.902344 -18.496094 C 11.871094 -30.640625 14.214844 -42.507812 22.222656 -50.652344 C 22.773438 -51.203125 23.324219 -51.757812 23.738281 -52.308594 C 23.878906 -51.34375 24.292969 -50.238281 24.707031 -48.996094 C 25.121094 -48.582031 26.5 -46.925781 28.570312 -46.375 L 28.707031 -44.71875 C 28.707031 -34.917969 24.429688 -20.839844 19.183594 -12.835938 Z M 19.183594 -12.835938 "/></g></g></g><g fill="#ff0000" fill-opacity="1"><g transform="translate(1669.836152, 1668.629462)"><g/></g></g><g fill="#ff0000" fill-opacity="1"><g transform="translate(1711.51717, 1668.629462)"><g><path d="M 68.734375 -19.046875 C 68.320312 -21.945312 66.523438 -23.738281 62.796875 -24.980469 C 57.691406 -26.5 55.34375 -22.910156 55.34375 -21.253906 C 47.890625 -8.558594 35.195312 -1.105469 26.914062 -6.210938 C 21.394531 -9.386719 18.355469 -14.628906 16.148438 -25.257812 C 14.769531 -31.605469 14.90625 -38.507812 16.5625 -46.234375 C 19.875 -61.96875 24.429688 -70.941406 34.367188 -81.292969 C 40.023438 -87.089844 43.75 -89.851562 49.273438 -90.265625 C 51.34375 -90.539062 52.171875 -89.710938 52.722656 -86.539062 C 53.6875 -81.707031 52.03125 -75.496094 49.273438 -73.289062 C 44.71875 -69.699219 44.71875 -69.835938 47.753906 -66.664062 C 49.824219 -64.316406 55.898438 -63.625 58.65625 -65.421875 C 64.867188 -69.285156 67.628906 -73.425781 67.765625 -79.914062 C 68.179688 -95.648438 48.996094 -102.960938 36.851562 -97.855469 C 28.019531 -93.851562 22.359375 -88.332031 18.355469 -83.640625 C 7.589844 -71.492188 3.175781 -62.796875 0.136719 -47.476562 C -2.761719 -31.191406 -2.207031 -23.324219 2.761719 -14.078125 C 13.941406 6.902344 44.71875 11.730469 61.140625 -4.832031 C 68.042969 -11.59375 69.421875 -14.214844 68.734375 -19.046875 Z M 68.734375 -19.046875 "/></g></g></g><g fill="#ff0000" fill-opacity="1"><g transform="translate(1800.399607, 1668.629462)"><g><path d="M -1.105469 1.933594 C 3.589844 2.621094 8.695312 0 8.972656 -3.175781 C 9.660156 -9.9375 10.214844 -13.800781 10.902344 -16.425781 C 12.144531 -22.222656 12.558594 -27.050781 14.492188 -31.191406 C 19.597656 -43.75 25.257812 -53.828125 35.882812 -56.726562 C 38.921875 -57.277344 42.371094 -59.070312 42.507812 -60.039062 C 42.648438 -61.695312 41.40625 -62.796875 38.09375 -64.316406 C 36.574219 -65.007812 32.570312 -65.28125 29.535156 -64.730469 C 24.566406 -63.625 20.152344 -60.039062 16.839844 -56.171875 C 16.839844 -59.484375 15.183594 -60.726562 10.351562 -61.554688 C 1.792969 -63.210938 2.484375 -57.828125 2.207031 -56.449219 C 0.277344 -47.0625 -1.105469 -37.816406 -2.761719 -29.675781 L -6.902344 -5.519531 C -7.589844 -0.414062 -6.210938 1.519531 -1.105469 1.933594 Z M -1.105469 1.933594 "/></g></g></g><g fill="#ff0000" fill-opacity="1"><g transform="translate(1854.640074, 1668.629462)"><g><path d="M 50.375 -25.394531 C 44.578125 -27.050781 42.507812 -21.945312 42.507812 -21.945312 C 36.296875 -13.941406 34.226562 -11.871094 28.707031 -8.695312 C 20.980469 -4.003906 17.253906 -4.003906 14.214844 -8.003906 C 12.699219 -10.214844 11.457031 -14.90625 11.316406 -19.460938 C 11.316406 -23.050781 11.59375 -26.085938 12.144531 -27.328125 C 12.144531 -27.464844 15.320312 -27.464844 16.5625 -27.605469 C 30.917969 -29.398438 42.371094 -42.785156 40.023438 -55.484375 C 38.367188 -63.765625 26.085938 -68.179688 18.355469 -63.765625 C 14.355469 -61.417969 11.316406 -58.933594 9.386719 -56.726562 C 1.65625 -46.375 -2.070312 -38.644531 -4.003906 -26.5 C -4.832031 -21.117188 -4.140625 -17.390625 -3.863281 -13.386719 C -2.484375 -1.519531 11.730469 5.519531 27.742188 2.207031 C 37.539062 0 46.097656 -5.796875 52.308594 -13.941406 C 54.242188 -16.839844 55.070312 -18.355469 55.34375 -20.566406 C 55.484375 -23.464844 54.378906 -24.429688 50.375 -25.394531 Z M 19.460938 -48.71875 C 21.808594 -52.03125 24.015625 -54.515625 25.671875 -55.484375 C 25.808594 -55.621094 25.949219 -55.757812 26.222656 -55.757812 C 26.222656 -54.792969 26.363281 -53.550781 26.222656 -53.136719 C 25.671875 -48.859375 23.1875 -44.304688 21.945312 -42.785156 C 18.910156 -39.472656 16.425781 -37.539062 14.214844 -36.4375 C 15.457031 -41.128906 17.804688 -45.960938 19.460938 -48.71875 Z M 19.460938 -48.71875 "/></g></g></g><g fill="#ff0000" fill-opacity="1"><g transform="translate(1916.195398, 1668.629462)"><g><path d="M 60.453125 -23.464844 C 58.242188 -26.085938 52.585938 -24.84375 50.101562 -20.839844 C 47.339844 -16.011719 46.234375 -15.042969 44.304688 -12.699219 C 42.09375 -9.800781 39.472656 -7.867188 38.78125 -8.28125 L 38.921875 -8.28125 C 38.921875 -8.28125 38.367188 -10.351562 38.230469 -13.800781 C 37.953125 -20.839844 41.265625 -29.121094 42.234375 -33.675781 C 42.921875 -38.09375 41.820312 -39.472656 36.4375 -40.851562 C 32.160156 -41.957031 28.292969 -40.300781 26.914062 -36.160156 C 24.429688 -27.464844 21.808594 -18.632812 16.976562 -11.316406 C 15.042969 -8.972656 14.078125 -7.730469 13.527344 -7.039062 L 13.113281 -7.453125 C 11.59375 -9.246094 11.871094 -14.769531 11.457031 -19.046875 C 12.007812 -30.777344 15.320312 -41.40625 20.839844 -49.273438 C 26.636719 -56.863281 26.363281 -56.726562 29.261719 -53.136719 C 29.949219 -52.308594 29.675781 -49.6875 29.8125 -48.445312 C 29.949219 -45.820312 33.953125 -43.476562 37.953125 -43.75 C 42.234375 -44.164062 44.164062 -45.960938 44.164062 -49.273438 C 43.890625 -55.484375 37.539062 -61.695312 29.398438 -63.902344 C 24.980469 -65.007812 19.183594 -63.902344 16.011719 -61.554688 C 9.523438 -56.449219 5.519531 -51.480469 2.207031 -44.578125 C -2.484375 -33.675781 -5.660156 -24.707031 -4.003906 -13.25 C -2.761719 -5.660156 1.378906 -0.828125 9.523438 2.070312 C 15.871094 4.003906 23.050781 1.933594 27.605469 -3.449219 C 32.710938 2.484375 44.992188 2.761719 51.34375 -3.449219 C 55.757812 -7.589844 59.210938 -12.285156 61.695312 -16.699219 C 62.9375 -19.597656 62.796875 -20.152344 60.453125 -23.464844 Z M 60.453125 -23.464844 "/></g></g></g><g fill="#ff0000" fill-opacity="1"><g transform="translate(1984.927537, 1668.629462)"><g><path d="M 40.714844 -17.527344 C 38.921875 -21.253906 31.191406 -21.945312 29.121094 -18.769531 C 25.949219 -14.628906 19.597656 -9.660156 17.113281 -8.558594 C 12.285156 -6.210938 11.042969 -6.761719 10.902344 -12.007812 C 10.628906 -23.050781 14.355469 -36.4375 16.5625 -46.375 C 17.253906 -49.546875 17.527344 -50.789062 17.527344 -51.757812 C 19.324219 -51.894531 22.636719 -52.03125 24.015625 -52.171875 C 28.15625 -52.445312 30.917969 -53.828125 31.191406 -55.484375 C 31.332031 -58.242188 28.570312 -60.453125 24.566406 -60.726562 C 22.910156 -60.867188 21.53125 -60.726562 20.152344 -60.589844 L 20.289062 -61.554688 C 21.53125 -69.421875 22.636719 -70.113281 23.050781 -77.152344 C 23.1875 -80.601562 21.394531 -82.535156 16.839844 -83.5 C 12.558594 -84.46875 8.003906 -82.398438 7.316406 -78.671875 C 5.519531 -70.804688 5.796875 -69.007812 4.140625 -62.660156 C 3.726562 -61.554688 3.589844 -60.867188 3.3125 -59.625 C -0.691406 -59.347656 -3.863281 -57.96875 -4.277344 -56.726562 C -4.832031 -53.964844 -2.898438 -52.308594 1.242188 -51.894531 L 1.65625 -51.894531 L 0 -45.269531 C -0.964844 -35.746094 -4.96875 -24.707031 -5.105469 -15.734375 C -5.105469 -5.105469 1.933594 1.792969 13.800781 2.347656 C 24.292969 2.761719 33.953125 -5.933594 36.296875 -8.695312 C 40.300781 -13.25 41.542969 -15.597656 40.714844 -17.527344 Z M 40.714844 -17.527344 "/></g></g></g><g fill="#ff0000" fill-opacity="1"><g transform="translate(2032.267181, 1668.629462)"><g><path d="M 15.457031 -73.148438 C 19.597656 -72.460938 26.363281 -78.53125 25.949219 -82.671875 C 25.808594 -85.019531 23.050781 -87.226562 18.769531 -88.054688 L 17.667969 -88.054688 C 12.285156 -87.917969 8.28125 -83.914062 8.417969 -78.53125 C 8.558594 -75.496094 11.179688 -73.425781 15.457031 -73.148438 Z M 35.882812 -17.941406 C 35.609375 -20.011719 34.917969 -20.839844 31.746094 -22.222656 C 29.121094 -23.050781 24.707031 -21.53125 23.738281 -19.738281 C 21.117188 -14.492188 18.21875 -10.902344 15.734375 -9.386719 C 13.527344 -8.003906 11.871094 -7.175781 10.902344 -7.039062 C 10.902344 -7.730469 10.628906 -9.109375 10.628906 -13.113281 C 11.316406 -24.015625 13.664062 -34.503906 16.148438 -44.441406 C 16.976562 -47.753906 17.527344 -50.789062 18.082031 -55.34375 C 18.355469 -58.242188 16.148438 -60.3125 11.730469 -61.140625 C 8.28125 -61.832031 4.140625 -60.039062 3.449219 -57.96875 L 3.3125 -57.691406 C 0.277344 -42.921875 -4.003906 -29.261719 -5.105469 -15.042969 C -5.796875 -4.96875 -0.136719 1.378906 9.386719 1.519531 C 16.839844 1.65625 26.363281 -2.207031 29.949219 -6.210938 C 34.78125 -11.457031 36.296875 -14.355469 35.882812 -17.941406 Z M 35.882812 -17.941406 "/></g></g></g><g fill="#ff0000" fill-opacity="1"><g transform="translate(2074.362326, 1668.629462)"><g><path d="M 42.09375 -55.898438 C 41.679688 -59.625 40.992188 -61.28125 38.507812 -64.179688 C 37.816406 -65.007812 35.882812 -65.695312 33.398438 -66.109375 L 33.261719 -66.109375 C 30.226562 -66.109375 27.878906 -64.730469 27.464844 -62.796875 C 26.777344 -59.625 27.328125 -57.96875 27.328125 -54.792969 C 26.914062 -46.511719 25.535156 -39.609375 22.082031 -30.777344 C 19.460938 -24.429688 12.972656 -13.800781 10.488281 -10.074219 C 10.488281 -10.902344 10.488281 -12.007812 10.628906 -12.972656 C 11.730469 -24.292969 13.113281 -27.050781 14.078125 -36.851562 C 14.628906 -42.921875 15.734375 -48.304688 16.425781 -53.550781 C 16.699219 -56.863281 14.355469 -58.933594 9.386719 -59.484375 C 5.382812 -60.039062 1.65625 -58.105469 1.242188 -54.929688 C 0.691406 -49.960938 -0.277344 -45.960938 -0.964844 -42.234375 C -2.761719 -30.226562 -4.140625 -24.015625 -5.519531 -13.113281 C -6.761719 -3.449219 -4.417969 1.378906 2.347656 2.207031 C 7.589844 2.761719 13.800781 0.964844 16.285156 -0.691406 C 21.945312 -4.003906 25.808594 -7.453125 28.847656 -12.144531 C 32.160156 -17.113281 33.675781 -19.183594 35.46875 -22.773438 C 41.40625 -34.503906 43.335938 -44.441406 42.09375 -55.898438 Z M 42.09375 -55.898438 "/></g></g></g><g fill="#ff0000" fill-opacity="1"><g transform="translate(2136.607585, 1668.629462)"><g><path d="M 15.457031 -73.148438 C 19.597656 -72.460938 26.363281 -78.53125 25.949219 -82.671875 C 25.808594 -85.019531 23.050781 -87.226562 18.769531 -88.054688 L 17.667969 -88.054688 C 12.285156 -87.917969 8.28125 -83.914062 8.417969 -78.53125 C 8.558594 -75.496094 11.179688 -73.425781 15.457031 -73.148438 Z M 35.882812 -17.941406 C 35.609375 -20.011719 34.917969 -20.839844 31.746094 -22.222656 C 29.121094 -23.050781 24.707031 -21.53125 23.738281 -19.738281 C 21.117188 -14.492188 18.21875 -10.902344 15.734375 -9.386719 C 13.527344 -8.003906 11.871094 -7.175781 10.902344 -7.039062 C 10.902344 -7.730469 10.628906 -9.109375 10.628906 -13.113281 C 11.316406 -24.015625 13.664062 -34.503906 16.148438 -44.441406 C 16.976562 -47.753906 17.527344 -50.789062 18.082031 -55.34375 C 18.355469 -58.242188 16.148438 -60.3125 11.730469 -61.140625 C 8.28125 -61.832031 4.140625 -60.039062 3.449219 -57.96875 L 3.3125 -57.691406 C 0.277344 -42.921875 -4.003906 -29.261719 -5.105469 -15.042969 C -5.796875 -4.96875 -0.136719 1.378906 9.386719 1.519531 C 16.839844 1.65625 26.363281 -2.207031 29.949219 -6.210938 C 34.78125 -11.457031 36.296875 -14.355469 35.882812 -17.941406 Z M 35.882812 -17.941406 "/></g></g></g><g fill="#ff0000" fill-opacity="1"><g transform="translate(2178.70273, 1668.629462)"><g><path d="M 40.714844 -17.527344 C 38.921875 -21.253906 31.191406 -21.945312 29.121094 -18.769531 C 25.949219 -14.628906 19.597656 -9.660156 17.113281 -8.558594 C 12.285156 -6.210938 11.042969 -6.761719 10.902344 -12.007812 C 10.628906 -23.050781 14.355469 -36.4375 16.5625 -46.375 C 17.253906 -49.546875 17.527344 -50.789062 17.527344 -51.757812 C 19.324219 -51.894531 22.636719 -52.03125 24.015625 -52.171875 C 28.15625 -52.445312 30.917969 -53.828125 31.191406 -55.484375 C 31.332031 -58.242188 28.570312 -60.453125 24.566406 -60.726562 C 22.910156 -60.867188 21.53125 -60.726562 20.152344 -60.589844 L 20.289062 -61.554688 C 21.53125 -69.421875 22.636719 -70.113281 23.050781 -77.152344 C 23.1875 -80.601562 21.394531 -82.535156 16.839844 -83.5 C 12.558594 -84.46875 8.003906 -82.398438 7.316406 -78.671875 C 5.519531 -70.804688 5.796875 -69.007812 4.140625 -62.660156 C 3.726562 -61.554688 3.589844 -60.867188 3.3125 -59.625 C -0.691406 -59.347656 -3.863281 -57.96875 -4.277344 -56.726562 C -4.832031 -53.964844 -2.898438 -52.308594 1.242188 -51.894531 L 1.65625 -51.894531 L 0 -45.269531 C -0.964844 -35.746094 -4.96875 -24.707031 -5.105469 -15.734375 C -5.105469 -5.105469 1.933594 1.792969 13.800781 2.347656 C 24.292969 2.761719 33.953125 -5.933594 36.296875 -8.695312 C 40.300781 -13.25 41.542969 -15.597656 40.714844 -17.527344 Z M 40.714844 -17.527344 "/></g></g></g><g fill="#ff0000" fill-opacity="1"><g transform="translate(2226.042374, 1668.629462)"><g><path d="M 2.761719 36.988281 C 11.316406 40.164062 21.253906 36.851562 25.121094 29.8125 C 30.503906 19.183594 30.363281 15.320312 33.125 5.246094 C 33.675781 2.347656 33.8125 1.65625 33.8125 1.242188 C 43.476562 -2.484375 52.859375 -10.214844 57.554688 -17.527344 C 59.761719 -21.117188 59.761719 -21.53125 56.3125 -24.707031 C 53.964844 -26.636719 49.273438 -25.949219 46.925781 -23.1875 C 43.476562 -18.910156 39.195312 -14.628906 35.746094 -12.007812 C 37.953125 -23.324219 42.234375 -42.234375 43.890625 -48.582031 C 44.71875 -52.03125 44.71875 -54.515625 45.269531 -55.898438 C 45.960938 -59.070312 44.441406 -60.453125 39.472656 -61.832031 C 35.746094 -62.523438 31.191406 -60.867188 30.640625 -58.796875 C 29.8125 -56.035156 28.984375 -53.550781 28.570312 -51.757812 C 26.777344 -40.578125 20.839844 -27.328125 14.90625 -20.425781 C 12.972656 -18.355469 11.730469 -16.839844 11.179688 -15.871094 C 10.902344 -17.253906 10.628906 -19.324219 10.902344 -20.425781 C 11.457031 -26.363281 15.183594 -38.507812 16.148438 -43.0625 C 17.527344 -51.203125 17.667969 -52.859375 17.113281 -55.34375 C 16.5625 -57.277344 12.972656 -59.210938 9.386719 -59.070312 C 5.933594 -59.210938 3.035156 -57.554688 2.761719 -55.757812 C 1.519531 -44.578125 -3.449219 -30.640625 -4.140625 -20.289062 C -4.417969 -15.042969 -3.175781 -12.558594 1.378906 -8.832031 C 7.589844 -4.277344 13.800781 -3.863281 19.460938 -7.589844 L 18.910156 -4.277344 C 12.421875 -1.519531 8.144531 0.964844 0.964844 6.074219 C -7.316406 12.285156 -10.074219 16.285156 -9.9375 22.359375 C -9.800781 28.847656 -5.933594 33.261719 2.761719 36.988281 Z M 8.417969 30.226562 C 4.417969 27.878906 3.175781 22.773438 5.519531 18.355469 C 8.144531 13.664062 10.214844 11.457031 14.492188 9.109375 C 16.5625 8.003906 16.839844 7.730469 17.390625 7.453125 C 15.597656 16.425781 15.042969 18.769531 11.730469 25.121094 C 9.660156 29.535156 8.832031 30.503906 8.417969 30.226562 Z M 8.417969 30.226562 "/></g></g></g></svg>